<svg xmlns="http://www.w3.org/2000/svg"><symbol xmlns="http://www.w3.org/2000/svg" viewBox="0 0 16 2" id="hide-line"><path d="M0 1h16" stroke="#141414"/></symbol><svg id="footer-logo-big" viewBox="0 0 50 50" fill="none" xmlns="http://www.w3.org/2000/svg"><path d="M43.951 29.006 33.408 4.855l-2.3-1.594-2.695-.858-3.646-.981-4.281 1.839-2.854 1.594 10.781 24.15h15.538Z" fill="url('#paint0_linear_102_110')"/><path d="m6.113 20.93 10.544 24.207 2.299 1.598 2.695.86 3.647.983 4.28-1.843 2.854-1.598-10.78-24.207H6.112Z" fill="url('#paint1_linear_102_110')"/><path d="M17.068 5.17.7 28.83l16.368.175L28.9 5.17c.831-2.438 3.43-1.016 4.626 0-5.11-9.363-13.101-3.901-16.458 0ZM32.932 44.83 49.3 21.17l-16.368-.175L21.099 44.83c-.83 2.438-3.43 1.016-4.625 0 5.11 9.363 13.101 3.901 16.458 0Z" fill="#fff"/><defs><linearGradient id="paint0_linear_102_110" x1="41.224" y1="29.006" x2="28.72" y2="5.613" gradientUnits="userSpaceOnUse"><stop/><stop offset=".495" stop-color="#fff"/><stop offset="1" stop-color="#fff"/></linearGradient><linearGradient id="paint1_linear_102_110" x1="8.84" y1="20.93" x2="21.39" y2="44.353" gradientUnits="userSpaceOnUse"><stop stop-color="#0C0C0C"/><stop offset=".495" stop-color="#fff"/><stop offset="1" stop-color="#fff"/></linearGradient></defs></svg><symbol xmlns="http://www.w3.org/2000/svg" viewBox="0 0 40 40" fill="none" id="footer-logo-small"><path d="m35.161 23.205-8.434-19.32-1.84-1.276-2.156-.686-2.917-.785-3.425 1.471-2.283 1.275 8.625 19.321h12.43Z" fill="url('#paint0_linear_74_1186')"/><path d="m4.893 16.743 8.435 19.366 1.839 1.278 2.156.688 2.917.787 3.425-1.475 2.283-1.278-8.625-19.366H4.893Z" fill="url('#paint1_linear_74_1186')"/><path d="M13.655 4.136.56 23.064l13.095.14L23.12 4.136c.665-1.95 2.744-.813 3.701 0-4.088-7.49-10.481-3.121-13.167 0ZM26.346 35.864 39.44 16.936l-13.094-.14-9.466 19.068c-.665 1.95-2.744.813-3.701 0 4.088 7.49 10.481 3.121 13.167 0Z" fill="#fff"/><defs><linearGradient id="paint0_linear_74_1186" x1="32.98" y1="23.205" x2="22.977" y2="4.491" gradientUnits="userSpaceOnUse"><stop/><stop offset=".495" stop-color="#fff"/><stop offset="1" stop-color="#fff"/></linearGradient><linearGradient id="paint1_linear_74_1186" x1="7.074" y1="16.743" x2="17.114" y2="35.482" gradientUnits="userSpaceOnUse"><stop stop-color="#0C0C0C"/><stop offset=".495" stop-color="#fff"/><stop offset="1" stop-color="#fff"/></linearGradient></defs></symbol><symbol xmlns="http://www.w3.org/2000/svg" viewBox="0 0 55 59" fill="none" id="header-logo-big"><g filter="url('#filter0_d_74_1106')"><path d="m34.702 27.022-4.007-9.177-.874-.606-1.024-.326-1.386-.373-1.626.699-1.085.605 4.097 9.178h5.905Z" fill="url('#paint0_linear_74_1106')"/></g><g filter="url('#filter1_d_74_1106')"><path d="m20.323 23.953 4.006 9.2.874.607 1.024.326 1.386.374 1.627-.7 1.084-.607-4.097-9.2h-5.904Z" fill="url('#paint1_linear_74_1106')"/></g><path d="m24.486 17.965-6.22 8.99 6.22.067 4.496-9.057c.316-.927 1.304-.387 1.758 0-1.942-3.559-4.979-1.483-6.254 0ZM30.514 33.035l6.22-8.99-6.22-.067-4.496 9.057c-.316.927-1.304.387-1.758 0 1.942 3.559 4.979 1.483 6.254 0Z" fill="#fff"/><defs><linearGradient id="paint0_linear_74_1106" x1="33.665" y1="27.022" x2="28.914" y2="18.133" gradientUnits="userSpaceOnUse"><stop/><stop offset=".495" stop-color="#fff"/><stop offset="1" stop-color="#fff"/></linearGradient><linearGradient id="paint1_linear_74_1106" x1="21.359" y1="23.953" x2="26.128" y2="32.854" gradientUnits="userSpaceOnUse"><stop stop-color="#0C0C0C"/><stop offset=".495" stop-color="#fff"/><stop offset="1" stop-color="#fff"/></linearGradient><filter id="filter0_d_74_1106" x="4.7" y=".54" width="50.001" height="50.482" filterUnits="userSpaceOnUse" color-interpolation-filters="sRGB"><feFlood flood-opacity="0" result="BackgroundImageFix"/><feColorMatrix in="SourceAlpha" values="0 0 0 0 0 0 0 0 0 0 0 0 0 0 0 0 0 0 127 0" result="hardAlpha"/><feOffset dy="4"/><feGaussianBlur stdDeviation="10"/><feComposite in2="hardAlpha" operator="out"/><feColorMatrix values="0 0 0 0 0 0 0 0 0 0 0 0 0 0 0 0 0 0 0.25 0"/><feBlend in2="BackgroundImageFix" result="effect1_dropShadow_74_1106"/><feBlend in="SourceGraphic" in2="effect1_dropShadow_74_1106" result="shape"/></filter><filter id="filter1_d_74_1106" x=".323" y="7.953" width="50.001" height="50.507" filterUnits="userSpaceOnUse" color-interpolation-filters="sRGB"><feFlood flood-opacity="0" result="BackgroundImageFix"/><feColorMatrix in="SourceAlpha" values="0 0 0 0 0 0 0 0 0 0 0 0 0 0 0 0 0 0 127 0" result="hardAlpha"/><feOffset dy="4"/><feGaussianBlur stdDeviation="10"/><feComposite in2="hardAlpha" operator="out"/><feColorMatrix values="0 0 0 0 0 0 0 0 0 0 0 0 0 0 0 0 0 0 0.25 0"/><feBlend in2="BackgroundImageFix" result="effect1_dropShadow_74_1106"/><feBlend in="SourceGraphic" in2="effect1_dropShadow_74_1106" result="shape"/></filter></defs></symbol><symbol xmlns="http://www.w3.org/2000/svg" viewBox="0 0 52 54" fill="none" id="header-logo-small"><g filter="url('#filter0_d_74_1114')"><path d="m31.307 24.122-2.952-6.763-.644-.446-.755-.24-1.02-.275-1.2.515-.798.446 3.018 6.762h4.351Z" fill="url('#paint0_linear_74_1114')"/></g><g filter="url('#filter1_d_74_1114')"><path d="m20.712 21.86 2.952 6.779.644.447.755.24 1.02.276 1.2-.516.798-.447-3.018-6.779h-4.351Z" fill="url('#paint1_linear_74_1114')"/></g><path d="m23.78 17.448-4.584 6.624 4.583.05 3.313-6.674c.233-.683.96-.285 1.295 0-1.43-2.622-3.668-1.093-4.608 0ZM28.22 28.552l4.584-6.624-4.583-.05-3.313 6.674c-.233.683-.96.285-1.295 0 1.43 2.622 3.668 1.093 4.608 0Z" fill="#fff"/><defs><linearGradient id="paint0_linear_74_1114" x1="30.544" y1="24.122" x2="27.043" y2="17.572" gradientUnits="userSpaceOnUse"><stop/><stop offset=".495" stop-color="#fff"/><stop offset="1" stop-color="#fff"/></linearGradient><linearGradient id="paint1_linear_74_1114" x1="21.475" y1="21.86" x2="24.989" y2="28.419" gradientUnits="userSpaceOnUse"><stop stop-color="#0C0C0C"/><stop offset=".495" stop-color="#fff"/><stop offset="1" stop-color="#fff"/></linearGradient><filter id="filter0_d_74_1114" x="3.938" y=".398" width="47.369" height="47.724" filterUnits="userSpaceOnUse" color-interpolation-filters="sRGB"><feFlood flood-opacity="0" result="BackgroundImageFix"/><feColorMatrix in="SourceAlpha" values="0 0 0 0 0 0 0 0 0 0 0 0 0 0 0 0 0 0 127 0" result="hardAlpha"/><feOffset dy="4"/><feGaussianBlur stdDeviation="10"/><feComposite in2="hardAlpha" operator="out"/><feColorMatrix values="0 0 0 0 0 0 0 0 0 0 0 0 0 0 0 0 0 0 0.25 0"/><feBlend in2="BackgroundImageFix" result="effect1_dropShadow_74_1114"/><feBlend in="SourceGraphic" in2="effect1_dropShadow_74_1114" result="shape"/></filter><filter id="filter1_d_74_1114" x=".712" y="5.86" width="47.369" height="47.742" filterUnits="userSpaceOnUse" color-interpolation-filters="sRGB"><feFlood flood-opacity="0" result="BackgroundImageFix"/><feColorMatrix in="SourceAlpha" values="0 0 0 0 0 0 0 0 0 0 0 0 0 0 0 0 0 0 127 0" result="hardAlpha"/><feOffset dy="4"/><feGaussianBlur stdDeviation="10"/><feComposite in2="hardAlpha" operator="out"/><feColorMatrix values="0 0 0 0 0 0 0 0 0 0 0 0 0 0 0 0 0 0 0.25 0"/><feBlend in2="BackgroundImageFix" result="effect1_dropShadow_74_1114"/><feBlend in="SourceGraphic" in2="effect1_dropShadow_74_1114" result="shape"/></filter></defs></symbol><symbol xmlns="http://www.w3.org/2000/svg" viewBox="0 0 24 24" fill="none" id="heart"><path d="M20.84 4.61a5.5 5.5 0 0 0-7.78 0L12 5.67l-1.06-1.06a5.501 5.501 0 1 0-7.78 7.78l1.06 1.06L12 21.23l7.78-7.78 1.06-1.06a5.5 5.5 0 0 0 0-7.78v0Z" stroke="#fff" stroke-opacity=".1" stroke-width="2" stroke-linecap="round" stroke-linejoin="round"/></symbol><symbol xmlns="http://www.w3.org/2000/svg" viewBox="0 0 24 24" fill="none" id="close-big"><path d="M18 6 6 18M6 6l12 12" stroke="#fff" stroke-width="1.3" stroke-linecap="round" stroke-linejoin="round"/></symbol><symbol xmlns="http://www.w3.org/2000/svg" viewBox="0 0 20 20" fill="none" id="close-small"><path d="M15 5 5 15M5 5l10 10" stroke="#fff" stroke-width="1.3" stroke-linecap="round" stroke-linejoin="round"/></symbol><symbol xmlns="http://www.w3.org/2000/svg" viewBox="0 0 24 24" id="modal-exit"><path d="M18 6 6 18M6 6l12 12" stroke="#141414" stroke-width="1.3" stroke-linecap="round" stroke-linejoin="round"/></symbol><symbol xmlns="http://www.w3.org/2000/svg" viewBox="0 0 24 24" fill="none" id="burger"><path d="M2 5.995c0-.55.446-.995.995-.995h8.01a.995.995 0 1 1 0 1.99h-8.01A.995.995 0 0 1 2 5.995ZM2 12c0-.55.446-.995.995-.995h18.01a.995.995 0 1 1 0 1.99H2.995A.995.995 0 0 1 2 12Zm.995 5.01a.995.995 0 1 0 0 1.99h12.01a.995.995 0 1 0 0-1.99H2.995Z" fill="#fff"/></symbol><symbol xmlns="http://www.w3.org/2000/svg" viewBox="0 0 40 2" fill="none" id="counterline-big"><path d="M0 1h40" stroke="#fff"/></symbol><symbol xmlns="http://www.w3.org/2000/svg" viewBox="0 0 32 2" fill="none" id="counterline-small"><path d="M0 1h32" stroke="#fff"/></symbol><symbol xmlns="http://www.w3.org/2000/svg" viewBox="0 0 24 24" fill="none" id="left-big"><path d="m15 18-6-6 6-6" stroke="#fff" stroke-opacity=".5" stroke-linecap="round" stroke-linejoin="round"/></symbol><symbol xmlns="http://www.w3.org/2000/svg" viewBox="0 0 18 18" fill="none" id="right-big"><path d="M11.25 13.5 6.75 9l4.5-4.5" stroke="#fff" stroke-opacity=".5" stroke-linecap="round" stroke-linejoin="round"/></symbol><symbol xmlns="http://www.w3.org/2000/svg" viewBox="0 0 24 24" fill="none" id="right-big"><path d="m9 18 6-6-6-6" stroke="#fff" stroke-linecap="round" stroke-linejoin="round"/></symbol><symbol xmlns="http://www.w3.org/2000/svg" viewBox="0 0 18 18" fill="none" id="right-small"><path d="m6.75 13.5 4.5-4.5-4.5-4.5" stroke="#fff" stroke-linecap="round" stroke-linejoin="round"/></symbol><symbol xmlns="http://www.w3.org/2000/svg" viewBox="0 0 28 28" fill="none" id="fb-big"><path d="M17.08 4.06h.84v3.15h-1.05c-.42 0-.84 0-1.05.21-.21.21-.21.42-.21.91v1.12h2.31v2.66h-2.31v11.55h-3.57V12.04h-1.89V9.38h1.89v-.91c0-1.54.21-2.66.63-3.15.63-.91 1.89-1.33 3.78-1.33.21.07.42.07.63.07Z" fill="#fff"/></symbol><symbol xmlns="http://www.w3.org/2000/svg" viewBox="0 0 24 24" fill="none" id="fb-small"><path d="M14.64 3.48h.72v2.7h-.9c-.36 0-.72 0-.9.18-.18.18-.18.36-.18.78v.96h1.98v2.28h-1.98v9.9h-3.06v-9.96H8.7V8.04h1.62v-.78c0-1.32.18-2.28.54-2.7.54-.78 1.62-1.14 3.24-1.14.18.06.36.06.54.06Z" fill="#fff"/></symbol><symbol xmlns="http://www.w3.org/2000/svg" viewBox="0 0 28 28" fill="none" id="insta-big"><g opacity=".8" fill="#fff"><path d="M25.128 9.411a8.096 8.096 0 0 0-.521-2.751 5.73 5.73 0 0 0-3.276-3.27 8.23 8.23 0 0 0-2.719-.522C17.416 2.815 17.036 2.8 14 2.8c-3.038 0-3.427 0-4.615.068-.93.02-1.848.195-2.718.522a5.726 5.726 0 0 0-3.275 3.27 8.127 8.127 0 0 0-.521 2.713c-.054 1.196-.07 1.575-.07 4.607 0 3.033 0 3.42.07 4.607.018.93.194 1.846.52 2.716a5.729 5.729 0 0 0 3.277 3.269 8.2 8.2 0 0 0 2.718.558c1.198.054 1.578.07 4.615.07 3.038 0 3.427 0 4.615-.07a8.208 8.208 0 0 0 2.719-.52 5.736 5.736 0 0 0 3.275-3.27c.327-.869.503-1.785.521-2.715.054-1.195.07-1.574.07-4.608-.002-3.032-.002-3.417-.072-4.606ZM13.99 19.715a5.745 5.745 0 0 1-5.75-5.741 5.744 5.744 0 0 1 5.75-5.741c3.175 0 5.75 2.57 5.75 5.74a5.746 5.746 0 0 1-5.75 5.742Zm5.98-10.356a1.338 1.338 0 1 1 0-2.677 1.339 1.339 0 1 1 0 2.677Z"/><path d="M13.993 17.479a3.504 3.504 0 1 0 0-7.007 3.504 3.504 0 0 0 0 7.007Z"/></g></symbol><symbol xmlns="http://www.w3.org/2000/svg" viewBox="0 0 24 24" fill="none" id="insta-small"><g opacity=".8" fill="#fff"><path d="M21.538 8.067a6.94 6.94 0 0 0-.447-2.359 4.91 4.91 0 0 0-2.807-2.802 7.053 7.053 0 0 0-2.33-.447c-1.026-.046-1.352-.059-3.955-.059-2.604 0-2.938 0-3.956.059a7.053 7.053 0 0 0-2.33.447 4.908 4.908 0 0 0-2.807 2.802 6.966 6.966 0 0 0-.446 2.326c-.046 1.025-.06 1.35-.06 3.949 0 2.6 0 2.931.06 3.949a7.01 7.01 0 0 0 .446 2.328 4.91 4.91 0 0 0 2.809 2.801c.742.29 1.53.454 2.33.48 1.026.045 1.351.059 3.955.059s2.937 0 3.956-.06a7.039 7.039 0 0 0 2.33-.446 4.917 4.917 0 0 0 2.807-2.802 7 7 0 0 0 .447-2.328c.046-1.024.06-1.349.06-3.95-.002-2.598-.002-2.928-.062-3.947Zm-9.546 8.831a4.924 4.924 0 0 1-4.929-4.92 4.924 4.924 0 0 1 4.93-4.921 4.925 4.925 0 0 1 4.928 4.92 4.925 4.925 0 0 1-4.929 4.921Zm5.126-8.876a1.147 1.147 0 1 1 0-2.295 1.147 1.147 0 1 1 0 2.295Z"/><path d="M11.994 14.982a3.003 3.003 0 1 0 0-6.006 3.003 3.003 0 0 0 0 6.006Z"/></g></symbol><symbol xmlns="http://www.w3.org/2000/svg" viewBox="0 0 28 28" fill="none" id="yt-big"><path fill-rule="evenodd" clip-rule="evenodd" d="M21.21 5.25c-1.19-.07-3.64-.14-7.35-.14h-.49c-3.57 0-5.95.07-7.14.21-1.61.14-2.73.56-3.36 1.12-.56.49-.98 1.4-1.12 2.59-.07.77-.14 2.38-.14 4.83v.35c0 2.31.07 3.92.21 4.69.21 1.12.56 1.96 1.26 2.45.7.56 1.89.91 3.57 1.05 1.19.07 3.64.14 7.35.14h.49c3.57 0 5.95-.07 7.14-.21 1.61-.14 2.73-.56 3.36-1.12.56-.49.98-1.4 1.12-2.59.07-.77.14-2.38.14-4.83v-.35c0-2.31-.07-3.92-.21-4.69-.21-1.12-.56-1.96-1.26-2.45-.7-.56-1.89-.91-3.57-1.05Zm-2.73 8.61-7.7 4.62V9.24l7.7 4.62Z" fill="#fff" opacity=".8"/></symbol><symbol xmlns="http://www.w3.org/2000/svg" viewBox="0 0 24 24" fill="none" id="yt-small"><path fill-rule="evenodd" clip-rule="evenodd" d="M18.18 4.5c-1.02-.06-3.12-.12-6.3-.12h-.42c-3.06 0-5.1.06-6.12.18-1.38.12-2.34.48-2.88.96-.48.42-.84 1.2-.96 2.22-.06.66-.12 2.04-.12 4.14v.3c0 1.98.06 3.36.18 4.02.18.96.48 1.68 1.08 2.1.6.48 1.62.78 3.06.9 1.02.06 3.12.12 6.3.12h.42c3.06 0 5.1-.06 6.12-.18 1.38-.12 2.34-.48 2.88-.96.48-.42.84-1.2.96-2.22.06-.66.12-2.04.12-4.14v-.3c0-1.98-.06-3.36-.18-4.02-.18-.96-.48-1.68-1.08-2.1-.6-.48-1.62-.78-3.06-.9Zm-2.34 7.38-6.6 3.96V7.92l6.6 3.96Z" fill="#fff" opacity=".8"/></symbol><symbol xmlns="http://www.w3.org/2000/svg" viewBox="0 0 32 32" fill="none" id="left-arrow-slider"><rect x=".5" y=".5" width="30" height="30" rx="8.5" stroke="#fff"/><path d="m19.25 21.5-4.5-4.5 4.5-4.5" stroke="#fff" stroke-linecap="round" stroke-linejoin="round"/></symbol><symbol xmlns="http://www.w3.org/2000/svg" viewBox="0 0 32 32" fill="none" id="right-arrow-slider"><rect x=".5" y=".5" width="32" height="30" rx="8.5" stroke="#fff"/><path d="m14.75 21.5 4.5-4.5-4.5-4.5" stroke="#fff" stroke-linecap="round" stroke-linejoin="round"/></symbol><symbol xmlns="http://www.w3.org/2000/svg" viewBox="0 0 32 32" fill="none" id="zero-one"><path d="M3.927 11.14c-.565 0-1.048-.135-1.449-.406A3.099 3.099 0 0 1 1.505 9.6a6.123 6.123 0 0 1-.546-1.687 11.888 11.888 0 0 1-.168-2.051c0-.728.056-1.412.168-2.051a6.122 6.122 0 0 1 .546-1.694c.252-.49.576-.873.973-1.148.401-.28.884-.42 1.449-.42.565 0 1.045.14 1.442.42.401.275.726.658.973 1.148.247.485.43 1.05.546 1.694.117.64.175 1.323.175 2.051 0 .728-.058 1.412-.175 2.051A6.123 6.123 0 0 1 6.342 9.6c-.247.48-.572.859-.973 1.134-.397.27-.877.406-1.442.406Zm0-1.05c.439 0 .798-.161 1.078-.483.285-.322.497-.798.637-1.428.14-.63.21-1.402.21-2.317 0-.92-.07-1.694-.21-2.324-.14-.63-.352-1.106-.637-1.428-.28-.327-.64-.49-1.078-.49a1.39 1.39 0 0 0-1.085.49c-.285.322-.497.798-.637 1.428-.14.63-.21 1.405-.21 2.324 0 .92.07 1.694.21 2.324.14.625.352 1.099.637 1.421.29.322.651.483 1.085.483ZM11.716.64V11h-1.19V1.935c-.037.051-.154.119-.35.203a5.436 5.436 0 0 1-1.61.406V1.466a5.54 5.54 0 0 0 .882-.217c.28-.093.518-.194.714-.301.196-.112.327-.215.392-.308h1.162Z" fill="#fff"/></symbol><symbol xmlns="http://www.w3.org/2000/svg" viewBox="0 0 32 32" fill="none" id="zero-five"><path d="M3.927 11.14c-.565 0-1.048-.135-1.449-.406A3.099 3.099 0 0 1 1.505 9.6a6.123 6.123 0 0 1-.546-1.687 11.888 11.888 0 0 1-.168-2.051c0-.728.056-1.412.168-2.051a6.122 6.122 0 0 1 .546-1.694c.252-.49.576-.873.973-1.148.401-.28.884-.42 1.449-.42.565 0 1.045.14 1.442.42.401.275.726.658.973 1.148.247.485.43 1.05.546 1.694.117.64.175 1.323.175 2.051 0 .728-.058 1.412-.175 2.051A6.123 6.123 0 0 1 6.342 9.6c-.247.48-.572.859-.973 1.134-.397.27-.877.406-1.442.406Zm0-1.05c.439 0 .798-.161 1.078-.483.285-.322.497-.798.637-1.428.14-.63.21-1.402.21-2.317 0-.92-.07-1.694-.21-2.324-.14-.63-.352-1.106-.637-1.428-.28-.327-.64-.49-1.078-.49a1.39 1.39 0 0 0-1.085.49c-.285.322-.497.798-.637 1.428-.14.63-.21 1.405-.21 2.324 0 .92.07 1.694.21 2.324.14.625.352 1.099.637 1.421.29.322.651.483 1.085.483Zm10.421-8.372h-4.032L9.952 5.12a.637.637 0 0 1 .14-.224c.084-.093.205-.189.364-.287.163-.098.366-.18.609-.245s.527-.098.854-.098c.85 0 1.493.303 1.932.91.443.607.665 1.407.665 2.401 0 .765-.119 1.414-.357 1.946-.233.532-.572.936-1.015 1.211-.443.27-.98.406-1.61.406-.509 0-.952-.075-1.33-.224a2.458 2.458 0 0 1-.924-.644 2.795 2.795 0 0 1-.539-.966 3.996 3.996 0 0 1-.175-1.211v-.021h1.183v.021c.005.705.163 1.213.476 1.526.317.313.758.469 1.323.469a1.6 1.6 0 0 0 .938-.273c.266-.182.469-.457.609-.826.145-.369.217-.833.217-1.393 0-.747-.138-1.314-.413-1.701-.27-.387-.67-.581-1.197-.581-.34 0-.64.068-.896.203-.257.13-.469.292-.637.483-.163.191-.28.373-.35.546l-1.148-.294.637-5.579h5.04v1.043Z" fill="#fff"/></symbol><symbol xmlns="http://www.w3.org/2000/svg" viewBox="0 0 32 32" fill="none" id="horizontal-line"><path d="M0 1h40" stroke="#fff"/></symbol></svg>